<svg xmlns="http://www.w3.org/2000/svg" width="180" height="180" viewBox="0 0 180 180">
    <defs>
        <linearGradient id="a" x1="-4.932%" x2="146.043%" y1="15.348%" y2="104.688%">
            <stop offset="0%" stop-color="#0D37C9"/>
            <stop offset="67.026%" stop-color="#24B5CD" stop-opacity=".938"/>
            <stop offset="100%" stop-color="#34427A"/>
        </linearGradient>
    </defs>
    <g fill="url(#a)" fill-rule="nonzero" transform="translate(-979 -876)">
        <path d="M1095.522 1000.27v-19.906h5.826v-5.819h-34.957v5.819h5.826v19.906c-1.981.865-3.783 1.993-5.487 3.241l-17.817-32.616V957.09h5.826v-5.818h-5.826v-8.728a2.91 2.91 0 0 0-2.913-2.909h-2.913v-8.727a2.91 2.91 0 0 0-2.913-2.909h-17.478a2.91 2.91 0 0 0-2.913 2.91v8.726h-2.913a2.91 2.91 0 0 0-2.913 2.91v8.727h-5.827v5.818h5.827v13.804l-33.18 60.744a14.582 14.582 0 0 0-1.777 6.965v2.85c0 8.02 6.534 14.546 14.565 14.546h75.74c2.065 0 4.092-.46 5.96-1.297a29.15 29.15 0 0 0 8.605 1.297c16.063 0 29.13-13.05 29.13-29.09 0-11.588-6.944-22.044-17.478-26.64zm-5.826-19.906v5.818h-11.653v-5.818h11.653zm-13.593 24.627a2.911 2.911 0 0 0 1.94-2.742V992h11.653v10.249c0 1.233.778 2.33 1.94 2.742 7.41 2.623 12.82 8.772 14.734 16.128-2.217.077-4.297.952-5.876 2.529l-2.412 2.409a2.941 2.941 0 0 1-2.06.852h-1a2.936 2.936 0 0 1-2.06-.852l-2.413-2.41a8.68 8.68 0 0 0-6.179-2.556h-1.001a8.68 8.68 0 0 0-6.179 2.557l-2.412 2.409a2.941 2.941 0 0 1-2.06.852h-1.001a2.936 2.936 0 0 1-2.06-.852l-2.412-2.41c-1.576-1.576-3.656-2.448-5.876-2.528 1.914-7.356 7.324-13.508 14.734-16.128zm-50.494-71.173h11.652v5.818h-11.652v-5.818zm-5.826 11.637h23.304v5.818h-23.304v-5.818zm-.356 27.575c.233-.428.356-.908.356-1.394v-14.545h23.304v14.545c0 .486.122.966.356 1.394l10.384 19.011c-2.176.101-4.214.966-5.767 2.516l-2.413 2.409a2.941 2.941 0 0 1-2.06.852h-1a2.936 2.936 0 0 1-2.06-.852l-2.413-2.41a8.68 8.68 0 0 0-6.179-2.556h-1a8.68 8.68 0 0 0-6.18 2.557l-2.412 2.409a2.941 2.941 0 0 1-2.06.852h-1.001a2.936 2.936 0 0 1-2.06-.852l-2.412-2.41c-1.549-1.549-3.592-2.414-5.768-2.515l10.385-19.011zm-25.862 77.152c-4.817 0-8.739-3.916-8.739-8.727v-2.851c0-1.455.37-2.904 1.067-4.18l19.994-36.606h2.744c.767 0 1.518.311 2.06.852l2.412 2.41a8.68 8.68 0 0 0 6.179 2.556h1.001a8.68 8.68 0 0 0 6.18-2.556l2.411-2.41a2.941 2.941 0 0 1 2.06-.852h1.001c.767 0 1.518.311 2.06.852l2.412 2.41a8.68 8.68 0 0 0 6.18 2.556h1a8.68 8.68 0 0 0 6.18-2.556l2.412-2.41a2.941 2.941 0 0 1 2.06-.852h2.743l5.273 9.652c-4.717 5.232-7.516 12.102-7.516 19.44 0 9.52 4.626 17.962 11.728 23.272h-72.902zm90.305 0c-12.85 0-23.305-10.44-23.305-23.273h.5c.768 0 1.519.311 2.06.852l2.413 2.41a8.68 8.68 0 0 0 6.179 2.556h1.001a8.68 8.68 0 0 0 6.179-2.557l2.412-2.409a2.941 2.941 0 0 1 2.06-.852h1.001c.767 0 1.518.311 2.06.852l2.412 2.41a8.68 8.68 0 0 0 6.18 2.556h1a8.68 8.68 0 0 0 6.18-2.557l2.412-2.409a2.941 2.941 0 0 1 2.06-.852h.5c0 12.832-10.455 23.273-23.304 23.273z"/>
        <path d="M999.5 1027c-4.686 0-8.5 3.814-8.5 8.5s3.814 8.5 8.5 8.5 8.5-3.814 8.5-8.5-3.814-8.5-8.5-8.5zm0 11.333a2.837 2.837 0 0 1-2.833-2.833c0-1.56 1.27-2.833 2.833-2.833a2.837 2.837 0 0 1 2.833 2.833c0 1.56-1.27 2.833-2.833 2.833zM1022.5 1021c-4.686 0-8.5 3.814-8.5 8.5s3.814 8.5 8.5 8.5 8.5-3.814 8.5-8.5-3.814-8.5-8.5-8.5zm0 11.333a2.837 2.837 0 0 1-2.833-2.833c0-1.56 1.27-2.833 2.833-2.833a2.837 2.837 0 0 1 2.833 2.833c0 1.56-1.27 2.833-2.833 2.833zM1042.5 1010c-4.686 0-8.5 3.814-8.5 8.5s3.814 8.5 8.5 8.5 8.5-3.814 8.5-8.5-3.814-8.5-8.5-8.5zm0 11.333a2.837 2.837 0 0 1-2.833-2.833c0-1.56 1.27-2.833 2.833-2.833a2.837 2.837 0 0 1 2.833 2.833c0 1.56-1.27 2.833-2.833 2.833zM1046 1039h6v6h-6zM1040 1033h6v6h-6zM1034 1039h6v6h-6zM1011 1012h6v6h-6zM1156.125 917h-40.25a2.885 2.885 0 0 0-2.875 2.896v11.583a2.885 2.885 0 0 0 2.875 2.896h2.875v104.25c0 9.583 7.736 17.375 17.25 17.375s17.25-7.792 17.25-17.375v-104.25h2.875a2.885 2.885 0 0 0 2.875-2.896v-11.583a2.885 2.885 0 0 0-2.875-2.896zM1136 1050.208c-6.342 0-11.5-5.195-11.5-11.583v-63.708h23v63.708c0 6.388-5.158 11.583-11.5 11.583zm11.5-81.083h-23v-34.75h23v34.75zm5.75-40.542h-34.5v-5.791h34.5v5.791z"/>
        <path d="M1130 1036h6v6h-6zM1136 1024h6v6h-6zM1130 1012h6v6h-6zM1136 1001h6v6h-6zM1130 989h6v6h-6zM1025.826 907.969c0-1.601 1.306-2.907 2.913-2.907h8.74V922.5h5.825v-17.438h29.13V969h5.827v-63.938H1087a2.913 2.913 0 0 1 2.913 2.907V969h5.826v-61.031c0-4.807-3.921-8.719-8.739-8.719h-8.74v-2.906c0-1.601 1.307-2.907 2.914-2.907h34.956a2.913 2.913 0 0 1 2.913 2.907v14.531h5.827v-14.531c0-4.807-3.922-8.719-8.74-8.719h-34.956c-4.818 0-8.74 3.912-8.74 8.719v2.906h-29.13v-14.531c0-1.601 1.306-2.907 2.913-2.907h99.044a2.913 2.913 0 0 1 2.913 2.907v26.156H1154v-26.156c0-4.807-3.922-8.719-8.74-8.719h-99.043c-4.817 0-8.739 3.912-8.739 8.719v14.531h-8.739c-4.817 0-8.739 3.912-8.739 8.719V922.5h5.826v-14.531zM996 919.5c0 4.686 3.814 8.5 8.5 8.5s8.5-3.814 8.5-8.5-3.814-8.5-8.5-8.5-8.5 3.814-8.5 8.5zm11.333 0c0 1.56-1.27 2.833-2.833 2.833a2.837 2.837 0 0 1-2.833-2.833c0-1.56 1.27-2.833 2.833-2.833a2.837 2.837 0 0 1 2.833 2.833zM993.5 905c7.995 0 14.5-6.505 14.5-14.5s-6.505-14.5-14.5-14.5-14.5 6.505-14.5 14.5 6.505 14.5 14.5 14.5zm0-23.2c4.796 0 8.7 3.904 8.7 8.7 0 4.796-3.904 8.7-8.7 8.7-4.796 0-8.7-3.904-8.7-8.7 0-4.796 3.904-8.7 8.7-8.7zM990.5 957c6.342 0 11.5-5.158 11.5-11.5s-5.158-11.5-11.5-11.5-11.5 5.158-11.5 11.5 5.158 11.5 11.5 11.5zm0-17.25a5.756 5.756 0 0 1 5.75 5.75 5.756 5.756 0 0 1-5.75 5.75 5.756 5.756 0 0 1-5.75-5.75 5.756 5.756 0 0 1 5.75-5.75z"/>
    </g>
</svg>
