<svg xmlns="http://www.w3.org/2000/svg" width="195" height="189" viewBox="0 0 195 189">
    <path fill="#000" fill-rule="nonzero" d="M71.682 76.423c-.611.037-2.596 1.737-2.596 1.737 1.068.458 3.21-1.775 2.596-1.737zm.268-.35l-.158.096c.055-.02.106-.04.155-.061 0-.014.003-.02.003-.034zM145.47 0c11.012 0 19.94 8.892 19.94 19.859 0 10.967-8.928 19.859-19.94 19.859-11.013 0-19.941-8.892-19.941-19.86C125.529 8.893 134.457 0 145.469 0zM25.763 85.143h5.343v-2.558h-5.343c-1.456 0-2.506-.287-2.891-.787-.292-.383-.165-.882-.165-.882l.065-15.444h-2.568v14.9c-.113.52-.258 1.768.587 2.918.9 1.227 2.579 1.853 4.972 1.853zm168.896 36.291l-.725-5.855c-2.864-22.871-2.977-23.743-1.871-64.05a2.562 2.562 0 0 0-2.5-2.626c-1.346-.089-2.596 1.074-2.641 2.487-1.113 40.682-.992 41.588 1.913 64.812l.728 5.865c.745 5.619.089 9.51-1.83 11.008-2.236 1.717-6.147.192-6.415.082-18.89-5.786-42.422 6.17-43.418 6.665a2.55 2.55 0 0 0-1.102 3.448 2.562 2.562 0 0 0 2.283 1.371c.395 0 .793-.082 1.178-.287.155-.072 10.659-5.39 22.581-7.168v39.823h-10.669c-2.173 0-3.935 1.751-3.935 3.916 0 2.158 1.762 3.916 3.935 3.916h30.308c2.173 0 3.935-1.758 3.935-3.916 0-2.165-1.765-3.916-3.935-3.916h-9.832v-40.254c2.366.16 4.701.527 6.94 1.21.275.11 6.645 2.716 11.267-.82 3.54-2.709 4.828-8.006 3.805-15.71zm-12.211-11.61c-.443-16.822-5.979-32.953-6.415-49.704-.642-24.397-38.181-24.95-38.483-1.152-14.368 2.435-28.718 3.727-43.325 3.043-13.259-.619-13.3 19.835-.134 20.448 15.342.714 30.561-.736 45.674-3.205 1.552 8.953 3.389 17.862 3.973 26.917-31.262 10.875-48.59 37.225-53.013 70.712-.03.23-.037.475-.058.715v-74.142h19.714V85.93H39.678a5.95 5.95 0 0 0 .073-.804c.006-.192.017-.404.03-.643.09-1.48.35-1.987 1.807-2.267.367-.069.83-.09 1.298-.082v1.23H61.86c.553.103 1.103.182 1.614.182.797 0 1.484-.181 1.889-.725.213-.284.213-.677.21-1.057 0-.366-.004-.742.174-.964.275-.332.804-.554 1.178-.588-.395.759-.642 1.566-.642 2.42h21.493c0-4.117-4.815-7.454-10.745-7.454-1.854 0-3.56.352-5.079.923.354 3.526-2.977 3.184-4.264 2.924-.152.188-.282.386-.413.585-.745-.079-1.572.267-2.008.793-.327.397-.32.91-.32 1.361.004.277.004.565-.082.677-.227.305-.673.404-1.185.431v-2.948H42.89v1.563a7.63 7.63 0 0 0-1.418.113c-1.844.352-2.215 1.197-2.315 2.839-.013.246-.02.465-.03.656-.014.373-.028.633-.08.831H0v17.527h10.73v85.01h79.935v-8.512c1.301 13.097 23.748 11.9 25.726-3.092 3.42-25.905 18.591-43.202 44.098-48.927 10.604 1.607 22.317-4.395 21.96-18.108zM28.996 28.227l3.23 45.884-8.532.595-3.232-45.88 8.534-.599z"/>
</svg>
