<svg xmlns="http://www.w3.org/2000/svg" width="119" height="129" viewBox="0 0 119 129">
    <g fill="none" fill-rule="nonzero">
        <path fill="#F7CD39" d="M81 94.04L4.242 129 0 119.96 76.758 85"/>
        <path fill="#E09B2D" d="M79 89.055L1.967 123 0 118.945 77.033 85"/>
        <path fill="#E03F20" d="M97.234 95.229c-1.269.613-2.835 1.085-4.535 1.385-6.13 1.095-14.03-.03-16.146-4.81-2.7-6.102 5.062-15.857 10.902-18.678a11.167 11.167 0 0 1 9.213-.254c2.667 1.11 4.951 3.253 6.253 6.196 2.7 6.103.156 13.337-5.687 16.16z"/>
        <path fill="#F9552A" d="M98.356 93.658c-1.246.593-2.783 1.051-4.453 1.342-3.35-.633-6.216-2.109-7.36-4.66-2.651-5.911 4.967-15.362 10.705-18.095.182-.087.367-.17.553-.245 2.619 1.076 4.861 3.151 6.14 6.002 2.652 5.912.153 12.92-5.585 15.656z"/>
        <path fill="#F8B43E" d="M87.592 0c0 30.88-22.064 25.654-21.584 46.558.213 9.275 6.452 15.434 14.579 18.283 2.318.813 4.425-1.646 3.285-3.804-3.35-6.336-5.566-16.64 7.558-25.406.592 11.887 10.552 13.777 10.552 22.329 0 1.08-.07 2.053-.19 2.929-.288 2.108 1.923 3.69 3.863 2.778 6.83-3.21 12.09-9.029 13.115-17.584C122.128 18.053 87.592 0 87.592 0z"/>
    </g>
</svg>
