<svg xmlns="http://www.w3.org/2000/svg" width="226" height="183" viewBox="0 0 226 183">
    <defs>
        <linearGradient id="a" x1="-4.932%" x2="146.043%" y1="15.348%" y2="104.688%">
            <stop offset="0%" stop-color="#0D37C9"/>
            <stop offset="67.026%" stop-color="#24B5CD" stop-opacity=".938"/>
            <stop offset="100%" stop-color="#34427A"/>
        </linearGradient>
    </defs>
    <path fill="url(#a)" fill-rule="nonzero" d="M221.434 5.798a3.138 3.138 0 0 0-2.54-1.958 3.145 3.145 0 0 0-2.935 1.29c-3.966 5.55-9.17 7.399-15.2 9.54-4.861 1.729-9.888 3.514-15.321 7.407-7.684 5.504-11.199 13.008-9.446 20.12l-.187.24c-3.209-4.646-6.7-8.942-10.384-12.778C148.184 11.712 124.099.922 99.339.057 98.25.02 97.14 0 96.044 0c-27.647 0-54.11 12.333-72.602 33.836-18.396 21.391-26.55 49.238-22.37 76.4.35 2.27.788 4.565 1.302 6.82 6.8 29.862 24.165 52.58 47.644 62.324 5.788 2.403 11.626 3.62 17.35 3.62 14.221 0 26.643-7.59 34.08-20.824 2.828-5.036 4.652-10.243 5.42-15.48.454-3.09.144-6.178-.156-9.17-.31-3.08-.601-5.992-.134-8.922 1.07-6.719 5.773-10.73 12.58-10.73 1.937 0 3.915.318 5.891.946a306.627 306.627 0 0 0-6.25 12.024c-3.89 7.941-6.575 14.518-7.98 19.545-.865 3.1-3.166 11.34 2.444 15.226 1.781 1.233 4.04 1.669 6.39 1.232 2.119-.392 8.564-1.587 26.88-22.394 4.915-5.583 10.212-12.045 15.749-19.208 14.213-4.777 25.274-16.665 28.2-30.325.732-3.415 1.038-7.069.908-10.865a485.824 485.824 0 0 0 14.686-24.096c.09-.158.179-.327.267-.5 6.817-1.864 12.689-7.158 16.135-14.561 5.032-10.805 4.661-24.692-1.044-39.1zm-76.839 51.164c-2.466 3.907-6.704 6.24-11.338 6.24-2.517 0-4.978-.71-7.118-2.055a13.27 13.27 0 0 1-5.92-8.342 13.244 13.244 0 0 1 1.725-10.077c2.466-3.907 6.705-6.24 11.34-6.24 2.517 0 4.978.71 7.117 2.056a13.267 13.267 0 0 1 5.92 8.342 13.248 13.248 0 0 1-1.726 10.076zm17.373 24.198c6.767-9.948 13.922-19.838 20.72-28.634a36.681 36.681 0 0 0 3.668 2.887c2.211 1.531 4.524 2.715 6.887 3.526-5.739 9.792-11.909 19.494-19.38 30.475-12.275 18.048-25.038 34.812-35.939 47.206-6.088 6.922-11.417 12.267-15.523 15.577 1.585-5.058 4.614-12.001 8.829-20.227 7.537-14.71 18.453-32.754 30.738-50.81zm-118.804-.085c-2.517 0-4.978-.71-7.118-2.056a13.267 13.267 0 0 1-5.92-8.342A13.243 13.243 0 0 1 31.853 60.6c2.465-3.907 6.703-6.24 11.337-6.24 2.518 0 4.98.71 7.12 2.056 6.244 3.925 8.125 12.188 4.194 18.418-2.467 3.908-6.706 6.24-11.34 6.24zm-14.03 29.41c2.466-3.908 6.704-6.241 11.339-6.241 2.516 0 4.977.71 7.118 2.055a13.268 13.268 0 0 1 5.92 8.342c.792 3.478.179 7.056-1.728 10.076-2.464 3.907-6.703 6.24-11.337 6.24-2.517 0-4.98-.71-7.12-2.055a13.266 13.266 0 0 1-5.918-8.342 13.253 13.253 0 0 1 1.726-10.075zm42.864-79.323c2.466-3.908 6.704-6.24 11.339-6.24 2.516 0 4.977.71 7.117 2.055 6.245 3.923 8.126 12.186 4.195 18.418-2.467 3.908-6.705 6.24-11.34 6.24-2.516 0-4.978-.71-7.117-2.055a13.266 13.266 0 0 1-5.919-8.342 13.242 13.242 0 0 1 1.725-10.076z"/>
</svg>
