<svg xmlns="http://www.w3.org/2000/svg" width="152" height="166" viewBox="0 0 152 166">
    <defs>
        <linearGradient id="a" x1="-4.932%" x2="146.043%" y1="15.348%" y2="104.688%">
            <stop offset="0%" stop-color="#0D37C9"/>
            <stop offset="67.026%" stop-color="#24B5CD" stop-opacity=".938"/>
            <stop offset="100%" stop-color="#34427A"/>
        </linearGradient>
    </defs>
    <g fill="url(#a)" fill-rule="nonzero" transform="translate(-798 -1257)">
        <path d="M806.693 1416.131l2.307-8.747-6.363-2.384-4.37 6.837s2.41 6.204-.267 11.163c.002 0 3.351-5.414 8.693-6.869zm-4.275-4.013c.783-.305 1.686.043 2.01.773.326.73-.046 1.57-.83 1.875-.782.305-1.685-.043-2.009-.773-.329-.733.043-1.574.83-1.875zM869.512 1313.593c-17.573 14.45-40.58 44.215-60.09 78.984l-.011-.014-3.411 6.034 3.637 1.403 1.921-5.076c10.41-18.81 38.647-67.934 90.28-100.572 0 0 19.223-11.478 38.162-27.352-4.611 3.864-13.708 8.708-18.64 11.833-12.946 8.2-28.921 15.907-51.848 34.76z"/>
        <path d="M807.263 1365.084c-4.002 14.164-3.773 24.951-2.224 27.916h2.42c6.685-13.864 38.88-64.084 58.92-79.804 20.762-16.288 36.777-25.766 50.247-32.677 4.73-2.427 9.582-5.713 13.958-9.008 5.313-4.196 10.7-8.683 15.416-13.075l-13.671 8.978 6.095-9.336-11.638 11.85L934.36 1257c-17.916 1.619-34.542 10.594-34.542 10.594-6.651 7.9-12.008 20.467-12.008 20.467-.186-6.284 4.065-15.8 4.065-15.8-3.141 1.437-15.073 8.26-15.073 8.26-5.837 4.849-7.65 17.596-7.65 17.596-1.11-5.028 2.77-14.721 2.77-14.721-16.812 9.696-28.82 26.213-28.82 26.213-8.312 16.337-1.478 29.084-4.065 26.033-2.587-3.052-2.031-14.184-2.031-14.184-17.55 16.878-19.396 24.955-19.396 24.955-2.955 7.182-5.543 26.393-5.543 26.393-1.663-1.796 0-11.85 0-11.85-4.25 8.978-2.216 17.416-2.216 17.416-2.03-.72-2.587-13.288-2.587-13.288z"/>
        <path d="M946.509 1264s-6.773 6.545-15.451 13.05c-13.604 10.7-26.702 19.447-26.702 19.447C853.043 1326.734 824.45 1376.08 815 1393h5.024c1.776-1.42 4.443-2.49 15.58-5.705 14.07-4.063 22.464-12.544 22.464-12.544s-12.836 7.168-18.885 6.452c-6.05-.716-14.178 1.553-14.178 1.553s-3.104-1.433 12.202-3.703c15.306-2.27 40.486-19.353 40.486-19.353s-9.628 3.942-14.07 3.582c-4.443-.36-15.43 0-15.43 0 7.282-1.673 14.072-.716 25.18-4.898 11.11-4.183 10.492-3.823 10.492-3.823 12.59-4.182 17.82-17.203 17.82-17.203-2.178.836-18.809 2.866-25.707.836-6.9-2.03-18.653 0-18.653 0 11.11-3.703 13.58-2.03 16.292-2.15 2.716-.119 11.481.597 28.885-5.375 17.404-5.972 22.341-13.38 22.341-13.38l-11.737 1.564c7.664-1.286 16.303-6.343 16.303-6.343-5.309 1.433-13.58 2.15-13.58 2.15 9.752-2.15 15.184-5.137 15.184-5.137 9.134-6.929 11.232-17.203 11.232-17.203-12.962 4.42-23.205 2.39-23.205 2.39 17.776-1.194 22.713-5.736 25.18-6.81 2.47-1.075 3.486-5.525 3.486-5.525-8.98 3.226-19.164 3.763-19.164 3.763 11.016-1.703 20.456-7.259 20.456-7.259v-5.561c-4.259 2.42-11.754 4.302-11.754 4.302l11.664-7.526c.655-3.765-2.4-6.094-2.4-6.094zM803 1403.15l6.744 2.85 1.256-3.15-6.743-2.85zM879.344 1399.922c-22.94 10.935-44.979 18.388-74.288 19.364-2.735.093-2.748 2.804 0 2.712 26.22-.873 48.036-6.461 69.076-16.238 23.438-10.894 44.965-20.023 74.323-23.125 2.707-.287 1.556-2.898-1.133-2.613-26 2.75-47.124 9.961-67.978 19.9z"/>
    </g>
</svg>
