<svg xmlns="http://www.w3.org/2000/svg" width="140" height="163" viewBox="0 0 140 163">
    <path fill="#000" fill-rule="nonzero" d="M140 63.805a1.32 1.32 0 0 1-1.804 1.222l-16.486-6.484h-.329c-1.591 18.476-15.668 28.99-27.12 37.526-10.266 7.655-16.5 12.786-16.5 19.494h-.002v30.204l.002.05h-.002V163H62.237v-17.23c-.027-12.907-10.243-20.533-21.061-28.6-10.507-7.83-22.374-16.707-22.689-31.289h-.193L1.808 92.367a1.324 1.324 0 0 1-1.542-.43 1.304 1.304 0 0 1 .01-1.593l24.898-32.245a1.317 1.317 0 0 1 2.093 0l24.896 32.249c.185.232.274.518.274.801 0 .28-.087.558-.264.792-.356.474-.99.648-1.542.433l-16.486-6.486h-.13c.351 6.43 6.499 11.486 16.465 18.917 3.811 2.845 7.92 5.908 11.757 9.407v-47.31a1.283 1.283 0 0 1-.163-.601V28.3l-16.486 6.484a1.33 1.33 0 0 1-1.541-.431 1.31 1.31 0 0 1 .01-1.597L68.955.514a1.32 1.32 0 0 1 2.093 0L95.943 32.76c.185.236.275.52.275.804 0 .28-.088.557-.265.791-.355.472-.99.648-1.541.43l-16.486-6.483v38c0 .223-.069.424-.167.608v22.33c2.374-1.935 4.815-3.765 7.197-5.54 9.801-7.306 19.084-14.265 20.763-25.108l-16.348 6.433a1.324 1.324 0 0 1-1.542-.433 1.304 1.304 0 0 1 .012-1.593l24.898-32.244a1.32 1.32 0 0 1 2.093 0l24.9 32.244c.179.24.268.522.268.806z"/>
</svg>
