<svg xmlns="http://www.w3.org/2000/svg" width="159" height="119" viewBox="0 0 159 119">
    <defs>
        <linearGradient id="a" x1="-4.932%" x2="146.043%" y1="15.348%" y2="104.688%">
            <stop offset="0%" stop-color="#0D37C9"/>
            <stop offset="67.026%" stop-color="#24B5CD" stop-opacity=".938"/>
            <stop offset="100%" stop-color="#34427A"/>
        </linearGradient>
    </defs>
    <g fill="url(#a)" fill-rule="nonzero" transform="translate(-347 -1259)">
        <path d="M446.927 1260.605l-5.468-1.473c-.704-.231-1.397-.158-2.071.217a2.828 2.828 0 0 0-1.368 1.69l-32.886 111.887c-.235.752-.161 1.46.22 2.124.383.665.955 1.112 1.72 1.343l5.466 1.474c.706.233 1.397.16 2.073-.216a2.831 2.831 0 0 0 1.366-1.689l32.887-111.89c.234-.75.162-1.459-.221-2.124-.382-.665-.954-1.112-1.718-1.343zM398 1282.153c0-.746-.292-1.408-.877-1.982l-4.381-4.309c-.585-.574-1.257-.862-2.016-.862-.76 0-1.432.288-2.016.862l-40.833 40.157c-.585.574-.877 1.235-.877 1.982 0 .746.292 1.407.877 1.981l40.833 40.157c.584.575 1.255.861 2.016.861.76 0 1.431-.287 2.015-.861l4.382-4.307c.584-.574.877-1.235.877-1.983 0-.746-.293-1.407-.877-1.98L362.686 1318l34.437-33.866c.585-.574.877-1.235.877-1.982zM505.124 1316.018l-40.838-40.156c-.583-.574-1.256-.862-2.014-.862-.76 0-1.43.288-2.017.862l-4.38 4.309c-.584.574-.875 1.234-.875 1.982s.291 1.408.875 1.982l34.44 33.866-34.44 33.867c-.584.574-.875 1.236-.875 1.981 0 .748.291 1.41.875 1.983l4.38 4.307c.586.575 1.257.861 2.017.861.758 0 1.43-.287 2.014-.861l40.838-40.156c.584-.574.876-1.236.876-1.983 0-.747-.292-1.408-.876-1.982z"/>
    </g>
</svg>
