<svg xmlns="http://www.w3.org/2000/svg" width="167" height="167" viewBox="0 0 167 167">
    <g fill="none" fill-rule="nonzero">
        <path fill="#FFF" d="M107.333 40.333c0-7.362-6.038-13.333-13.485-13.333-4.43 0-8.33 2.144-10.787 5.405C80.604 29.144 76.704 27 72.273 27c-7.447 0-13.485 5.97-13.485 13.333C52.83 40.333 48 45.11 48 51c0 4.419 15.696 8 35.06 8 19.365 0 35.061-3.581 35.061-8 0-5.89-4.83-10.667-10.788-10.667z"/>
        <path fill="#454A4F" d="M118.121 29.667h5.394V35h-5.394zM131.606 43H137v5.333h-5.394z"/>
        <g fill="#333">
            <path d="M116.264 115.653l-13.91-2.141v-2.791c9.065-5.26 15.753-14.165 18.01-24.713 6.545-.913 11.62-6.49 11.62-13.282 0-6.502-4.636-11.943-10.774-13.196v-8.353c0-6.572-4.741-12.042-10.98-13.217-1.182-7.752-7.875-13.718-15.956-13.718A15.928 15.928 0 0 0 83.5 28.4a15.928 15.928 0 0 0-10.774-4.16c-8.08 0-14.774 5.967-15.957 13.72-6.238 1.174-10.979 6.644-10.979 13.216v8.353c-6.138 1.253-10.774 6.69-10.774 13.196 0 6.793 5.075 12.369 11.62 13.282 2.257 10.548 8.945 19.453 18.01 24.713v2.79l-13.91 2.14c-12.442 1.914-22.912 10.916-26.664 22.935L15.192 167h136.616l-8.88-28.414c-3.752-12.019-14.222-21.02-26.664-22.933zm-19.296-.224c-.464 1.404-3.294 8.474-13.468 8.474-10.17 0-12.996-7.038-13.468-8.474v-2.136c4.189 1.611 8.72 2.53 13.468 2.53 4.749 0 9.28-.919 13.468-2.53v2.136zM77.74 128.547L66.3 139.989l-4.13-20.646 3.408-.525c1.68 3.59 5.495 8.03 12.164 9.729zm5.759 1.858l7.308 7.308-4.733 7.1 2.4 16.8h-9.947l2.4-16.797-4.733-7.1 7.305-7.31zm5.759-1.858c6.669-1.7 10.486-6.139 12.164-9.73l3.407.526-4.129 20.646-11.442-11.442zm37.338-55.821c0 3.547-2.314 6.537-5.5 7.62.043-.744.113-1.479.113-2.233V65.14c3.127 1.115 5.387 4.078 5.387 7.585zm-67.339-29.63c4.455 0 8.08 3.626 8.08 8.081h5.388c0-6.402-4.504-11.754-10.502-13.114 1.074-4.817 5.365-8.434 10.502-8.434 3.143 0 6.02 1.409 8.08 3.806v17.742h5.388V33.435c2.06-2.397 4.937-3.806 8.08-3.806 5.137 0 9.428 3.617 10.502 8.434-5.998 1.36-10.502 6.712-10.502 13.114h5.387c0-4.455 3.626-8.08 8.08-8.08 4.394 0 7.96 3.526 8.063 7.895-1.374 2.044-13.064 5.573-32.304 5.573-19.24 0-30.93-3.529-32.304-5.573.103-4.37 3.669-7.895 8.062-7.895zm-18.855 29.63c0-3.507 2.26-6.47 5.387-7.585v12.972c0 .754.07 1.49.113 2.233-3.186-1.083-5.5-4.073-5.5-7.62zm10.774 5.387V57.294c9.716 4.488 29.433 4.658 32.323 4.658 2.89 0 22.607-.17 32.323-4.658v20.819c0 17.823-14.5 32.322-32.323 32.322S51.177 95.936 51.177 78.113zM29.212 140.19c3.148-10.066 11.918-17.61 22.345-19.216l5.285-.813 6.15 30.752 9.316-9.317 2.993 4.49-2.22 15.526H48.84l2.314-18.52-5.344-.669-2.397 19.189H22.518l6.694-21.422zm94.376 21.422l-2.4-19.189-5.344.668 2.314 18.52H93.916l-2.22-15.525 2.993-4.49 9.317 9.317 6.15-30.752 5.284.813c10.427 1.606 19.197 9.148 22.346 19.216l6.696 21.422h-20.894z"/>
            <path d="M67.339 80.806a5.393 5.393 0 0 1-5.387-5.387h-5.387c0 5.942 4.832 10.775 10.774 10.775 5.942 0 10.774-4.833 10.774-10.775h-5.387a5.393 5.393 0 0 1-5.387 5.387zM99.661 86.194c5.942 0 10.774-4.833 10.774-10.775h-5.387a5.393 5.393 0 0 1-5.387 5.387 5.393 5.393 0 0 1-5.387-5.387h-5.387c0 5.942 4.832 10.775 10.774 10.775zM167 13.468C167 6.042 160.958 0 153.532 0c-7 0-12.705 5.39-13.34 12.226l-12.017 12.016 5.387 5.387L122 41.192l3.809 3.81 11.563-11.564 5.387 5.387 12.016-12.016C161.61 26.173 167 20.469 167 13.468zm-31.207 10.774l5.403-5.403a13.538 13.538 0 0 0 6.965 6.965l-5.403 5.403-6.965-6.965zm17.74-2.694c-4.456 0-8.081-3.625-8.081-8.08s3.625-8.08 8.08-8.08 8.08 3.625 8.08 8.08-3.625 8.08-8.08 8.08zM24.242 38.825l5.387-5.387L41.192 45l3.81-3.809L33.437 29.63l5.387-5.387-12.016-12.016C26.173 5.39 20.469 0 13.468 0 6.042 0 0 6.042 0 13.468c0 7 5.39 12.705 12.226 13.34l12.016 12.017zm0-7.618l-5.403-5.403a13.538 13.538 0 0 0 6.965-6.965l5.403 5.403-6.965 6.965zM5.387 13.467c0-4.454 3.626-8.08 8.08-8.08 4.456 0 8.081 3.626 8.081 8.08 0 4.456-3.625 8.081-8.08 8.081s-8.08-3.625-8.08-8.08z"/>
        </g>
        <g fill="#FFA64D">
            <path d="M43.571 30H49v5.429h-5.429zM30 43.571h5.429V49H30z"/>
        </g>
    </g>
</svg>
