<svg xmlns="http://www.w3.org/2000/svg" xmlns:xlink="http://www.w3.org/1999/xlink" width="219" height="326" viewBox="0 0 219 326">
    <defs>
        <linearGradient id="d" x1="-10.979%" x2="82.061%" y1="15.797%" y2="66.283%">
            <stop offset="0%" stop-color="#33383E"/>
            <stop offset="100%" stop-opacity="0"/>
        </linearGradient>
        <linearGradient id="c" x1="50%" x2="50%" y1="0%" y2="100%">
            <stop offset="0%" stop-color="#5D636B"/>
            <stop offset="100%" stop-color="#43484F"/>
        </linearGradient>
        <path id="b" d="M15.364 0h180.272C204.12 0 211 7.142 211 15.953v286.094c0 8.81-6.879 15.953-15.364 15.953H15.364C6.88 318 0 310.858 0 302.047V15.953C0 7.143 6.879 0 15.364 0z"/>
        <filter id="a" width="106.6%" height="104.4%" x="-2.8%" y="-1.6%" filterUnits="objectBoundingBox">
            <feOffset dx="1" dy="2" in="SourceAlpha" result="shadowOffsetOuter1"/>
            <feGaussianBlur in="shadowOffsetOuter1" result="shadowBlurOuter1" stdDeviation="2"/>
            <feComposite in="shadowBlurOuter1" in2="SourceAlpha" operator="out" result="shadowBlurOuter1"/>
            <feColorMatrix in="shadowBlurOuter1" values="0 0 0 0 0 0 0 0 0 0 0 0 0 0 0 0 0 0 0.5 0"/>
        </filter>
        <linearGradient id="f" x1="50%" x2="50%" y1="0%" y2="99.033%">
            <stop offset="0%"/>
            <stop offset="100%" stop-color="#585656"/>
        </linearGradient>
        <linearGradient id="e" x1="50%" x2="50%" y1="0%" y2="98.268%">
            <stop offset="0%"/>
            <stop offset="100%" stop-color="#333232"/>
        </linearGradient>
        <linearGradient id="g" x1="50%" x2="65.963%" y1="0%" y2="97.85%">
            <stop offset="0%" stop-color="#24292F"/>
            <stop offset="100%" stop-color="#85909F"/>
        </linearGradient>
    </defs>
    <g fill="none" fill-rule="evenodd" transform="translate(3 2)">
        <use fill="#000" filter="url(#a)" xlink:href="#b"/>
        <use fill="#24292F" xlink:href="#b"/>
        <path fill="url(#d)" stroke="url(#c)" stroke-linejoin="square" stroke-width="2" d="M15.364 1C7.44 1 1 7.687 1 15.953v286.094C1 310.313 7.44 317 15.364 317h180.272c7.924 0 14.364-6.687 14.364-14.953V15.953C210 7.687 203.56 1 195.636 1H15.364z"/>
        <path fill="url(#c)" fill-rule="nonzero" d="M15.364 2.127C8.01 2.127 2.05 8.317 2.05 15.953v286.094c0 7.636 5.961 13.826 13.315 13.826h180.272c7.354 0 13.315-6.19 13.315-13.826V15.953c0-7.636-5.961-13.826-13.315-13.826H15.364zm0-2.127h180.272C204.12 0 211 7.142 211 15.953v286.094c0 8.81-6.879 15.953-15.364 15.953H15.364C6.88 318 0 310.858 0 302.047V15.953C0 7.143 6.879 0 15.364 0z"/>
        <rect width="3.079" height="3.235" x="103.96" y="14.36" fill="url(#f)" stroke="url(#e)" rx="1.54"/>
        <path fill="url(#g)" fill-rule="nonzero" d="M105.315 307.605c-5.325 0-9.642-4.481-9.642-10.01 0-5.528 4.317-10.009 9.642-10.009 5.324 0 9.641 4.481 9.641 10.01 0 5.528-4.317 10.01-9.641 10.01zm0-1.053c4.764 0 8.626-4.01 8.626-8.956 0-4.947-3.862-8.956-8.626-8.956-4.765 0-8.627 4.01-8.627 8.956s3.862 8.956 8.627 8.956z"/>
        <path fill="url(#g)" fill-rule="nonzero" d="M105.315 307.605c-5.325 0-9.642-4.481-9.642-10.01 0-5.528 4.317-10.009 9.642-10.009 5.324 0 9.641 4.481 9.641 10.01 0 5.528-4.317 10.01-9.641 10.01zm0-1.053c4.764 0 8.626-4.01 8.626-8.956 0-4.947-3.862-8.956-8.626-8.956-4.765 0-8.627 4.01-8.627 8.956s3.862 8.956 8.627 8.956z"/>
        <path fill="#FFF" stroke="#2C2C2C" d="M8.658 28.219h193.684v251.167H8.658z"/>
    </g>
</svg>
