<svg xmlns="http://www.w3.org/2000/svg" xmlns:xlink="http://www.w3.org/1999/xlink" width="92" height="186" viewBox="0 0 92 186">
    <defs>
        <linearGradient id="c" x1="-10.979%" x2="82.061%" y1="15.797%" y2="66.283%">
            <stop offset="0%" stop-color="#33383E"/>
            <stop offset="100%" stop-opacity="0"/>
        </linearGradient>
        <path id="b" d="M13.641 0h56.718C77.893 0 84 6.31 84 14.092v149.816C84 171.691 77.893 178 70.359 178H13.641C6.107 178 0 171.69 0 163.908V14.092C0 6.309 6.107 0 13.641 0z"/>
        <filter id="a" width="116.7%" height="107.9%" x="-7.1%" y="-2.8%" filterUnits="objectBoundingBox">
            <feOffset dx="1" dy="2" in="SourceAlpha" result="shadowOffsetOuter1"/>
            <feGaussianBlur in="shadowOffsetOuter1" result="shadowBlurOuter1" stdDeviation="2"/>
            <feColorMatrix in="shadowBlurOuter1" values="0 0 0 0 0 0 0 0 0 0 0 0 0 0 0 0 0 0 0.5 0"/>
        </filter>
        <filter id="d" width="115.5%" height="107.3%" x="-6.5%" y="-2.5%" filterUnits="objectBoundingBox">
            <feGaussianBlur in="SourceAlpha" result="shadowBlurInner1" stdDeviation=".5"/>
            <feOffset dy="4" in="shadowBlurInner1" result="shadowOffsetInner1"/>
            <feComposite in="shadowOffsetInner1" in2="SourceAlpha" k2="-1" k3="1" operator="arithmetic" result="shadowInnerInner1"/>
            <feColorMatrix in="shadowInnerInner1" values="0 0 0 0 1 0 0 0 0 1 0 0 0 0 1 0 0 0 0.115290987 0"/>
        </filter>
        <linearGradient id="e" x1="50%" x2="50%" y1="0%" y2="100%">
            <stop offset="0%" stop-color="#5D636B"/>
            <stop offset="100%" stop-color="#43484F"/>
        </linearGradient>
        <linearGradient id="f" x1="50%" y1="0%" y2="0%">
            <stop offset="0%" stop-color="#5C6269"/>
            <stop offset="100%" stop-color="#767D86"/>
        </linearGradient>
        <linearGradient id="g" x1="50%" y1="0%" y2="0%">
            <stop offset="0%" stop-color="#54585D"/>
            <stop offset="100%" stop-color="#767D86"/>
        </linearGradient>
        <circle id="h" cx="42.5" cy="165.5" r="6.5"/>
        <filter id="i" width="130.8%" height="130.8%" x="-15.4%" y="-15.4%" filterUnits="objectBoundingBox">
            <feGaussianBlur in="SourceAlpha" result="shadowBlurInner1" stdDeviation="1.5"/>
            <feOffset dy="1" in="shadowBlurInner1" result="shadowOffsetInner1"/>
            <feComposite in="shadowOffsetInner1" in2="SourceAlpha" k2="-1" k3="1" operator="arithmetic" result="shadowInnerInner1"/>
            <feColorMatrix in="shadowInnerInner1" values="0 0 0 0 0 0 0 0 0 0 0 0 0 0 0 0 0 0 0.5 0"/>
        </filter>
        <linearGradient id="j" x1="50%" x2="65.963%" y1="0%" y2="97.85%">
            <stop offset="0%" stop-color="#24292F"/>
            <stop offset="100%" stop-color="#85909F"/>
        </linearGradient>
        <linearGradient id="k" x1="50%" x2="50%" y1="0%" y2="98.268%">
            <stop offset="0%"/>
            <stop offset="100%" stop-color="#333232"/>
        </linearGradient>
        <linearGradient id="l" x1="50%" x2="50%" y1="0%" y2="99.033%">
            <stop offset="0%"/>
            <stop offset="100%" stop-color="#585656"/>
        </linearGradient>
        <linearGradient id="m" x1="50%" y1="0%" y2="0%">
            <stop offset="0%" stop-color="#798089"/>
            <stop offset="100%" stop-color="#767D86"/>
        </linearGradient>
    </defs>
    <g fill="none" fill-rule="evenodd" transform="translate(2 2)">
        <g transform="translate(1)">
            <use fill="#000" filter="url(#a)" xlink:href="#b"/>
            <use fill="#24292F" xlink:href="#b"/>
            <use fill="url(#c)" xlink:href="#b"/>
            <use fill="#000" filter="url(#d)" xlink:href="#b"/>
        </g>
        <path fill="url(#e)" fill-rule="nonzero" d="M13.641 1.483c-6.74 0-12.205 5.645-12.205 12.609v149.816c0 6.964 5.464 12.609 12.205 12.609h56.718c6.74 0 12.205-5.645 12.205-12.609V14.092c0-6.964-5.464-12.609-12.205-12.609H13.641zm0-1.483h56.718C77.893 0 84 6.31 84 14.092v149.816C84 171.691 77.893 178 70.359 178H13.641C6.107 178 0 171.69 0 163.908V14.092C0 6.309 6.107 0 13.641 0z" transform="translate(1)"/>
        <path fill="url(#f)" d="M82.526 13.458H84v3.809h-1.474z" transform="matrix(-1 0 0 1 167.526 0)"/>
        <path fill="url(#g)" d="M0 157.178h1.474v3.809H0z" transform="translate(1)"/>
        <path fill="url(#g)" d="M82.526 157.178H84v3.809h-1.474z" transform="matrix(-1 0 0 1 167.526 0)"/>
        <path fill="url(#f)" d="M0 13.458h1.474v3.809H0z" transform="translate(1)"/>
        <use fill="#24292F" xlink:href="#h"/>
        <use fill="#000" filter="url(#i)" xlink:href="#h"/>
        <path fill="url(#j)" fill-rule="nonzero" d="M43 173a7 7 0 1 1 0-14 7 7 0 0 1 0 14zm0-.737a6.263 6.263 0 1 0 0-12.526 6.263 6.263 0 0 0 0 12.526z"/>
        <rect width="14" height="1" x="35.5" y="10.5" fill="#000" stroke="url(#k)" rx=".5"/>
        <rect width="2" height="2" x="29.5" y="10.5" fill="url(#l)" stroke="url(#k)" rx="1"/>
        <g>
            <path fill="url(#m)" d="M.733 0v8.802A.733.733 0 0 1 0 8.07V.733C0 .328.328 0 .733 0zM.733 16.096v11.066A.733.733 0 0 1 0 26.429v-9.6c0-.405.328-.733.733-.733z" transform="translate(0 20)"/>
            <path fill="url(#m)" d="M84.733 16.096v11.066a.733.733 0 0 1-.733-.733v-9.6c0-.405.328-.733.733-.733z" transform="matrix(-1 0 0 1 169 20)"/>
            <path fill="#767D86" d="M.733 50.934V62A.733.733 0 0 1 0 61.267v-9.6c0-.405.328-.733.733-.733z"/>
        </g>
        <path fill="#FFF" stroke="#2C2C2C" d="M4.5 19.5h76v135h-76z"/>
    </g>
</svg>
