<svg xmlns="http://www.w3.org/2000/svg" width="167" height="162" viewBox="0 0 167 162">
    <defs>
        <linearGradient id="a" x1="-4.932%" x2="146.043%" y1="15.348%" y2="104.688%">
            <stop offset="0%" stop-color="#0D37C9"/>
            <stop offset="67.026%" stop-color="#24B5CD" stop-opacity=".938"/>
            <stop offset="100%" stop-color="#34427A"/>
        </linearGradient>
    </defs>
    <path fill="url(#a)" fill-rule="nonzero" d="M166.644 124.344a29.173 29.173 0 0 0-7.339-12.204 28.832 28.832 0 0 0-20.553-8.54 29.146 29.146 0 0 0-11.468 2.358L98.693 77.28l37.962-37.793 8.99-.254a3.175 3.175 0 0 0 2.637-1.562l12.866-21.7a3.194 3.194 0 0 0-.477-3.887L149.553.93a3.17 3.17 0 0 0-3.876-.478l-21.634 12.905a3.188 3.188 0 0 0-1.556 2.645l-.255 8.986-37.866 37.92L58.38 36.842c2.728-15.869-7.885-30.951-23.705-33.688A28.994 28.994 0 0 0 13.62 7.622a3.192 3.192 0 0 0 .222 5.417l14.423 8.062c3.177 1.817 3.812 7.234 1.239 11.822-2.573 4.589-7.497 6.947-10.706 5.162L5.423 30.82a3.171 3.171 0 0 0-4.314 1.256 3.19 3.19 0 0 0-.387 1.74c1.005 16.07 14.808 28.281 30.83 27.273 3.31-.208 6.56-.983 9.61-2.291l23.635 23.707-10.23 10.261-2.318-2.294a6.625 6.625 0 0 0-9.181 0l-3.177 3.186a6.387 6.387 0 0 0-.35 8.763l-37.58 37.633a6.387 6.387 0 0 0 0 9.209l10.737 10.77a6.34 6.34 0 0 0 9.181 0l37.613-37.696a6.34 6.34 0 0 0 8.736-.35l3.177-3.187a6.387 6.387 0 0 0 0-9.21l-2.32-2.325 10.166-10.42 30.815 30.909c-2.662 15.88 8.013 30.917 23.845 33.588a29.012 29.012 0 0 0 25.585-8.351 3.193 3.193 0 0 0-.26-4.499 3.17 3.17 0 0 0-1.17-.663l-17.884-4.812a5.886 5.886 0 0 1-3.749-3.664 11.729 11.729 0 0 1-.318-7.52c1.335-5.003 5.56-8.572 9.118-7.616l17.694 4.78c.285.041.574.041.858 0a3.18 3.18 0 0 0 3.215-3.148 3.196 3.196 0 0 0-.356-1.505zm-39.106-95.818a3.19 3.19 0 0 0 .92-2.167l.255-8.508 18.012-10.738 7.625 7.647-10.484 18.036-8.64.318c-.812.02-1.585.351-2.16.925L94.308 72.882l-5.464-5.48 38.693-38.876zM17.368 155.508L6.47 144.642l37.772-37.792 5.464 5.481 5.21 5.417-37.55 37.76zm46.476-38.238l-4.194-4.238-1.62-1.625-13.342-13.479 3.177-3.186 19.06 19.374-3.081 3.154zm.603-14.53l-5.464-5.481 10.23-10.26 5.463 5.48-10.229 10.26zm82.342 15.327a11.09 11.09 0 0 0-2.891-.383c-6.926.561-12.642 5.658-14.01 12.492a18.12 18.12 0 0 0 .604 11.63 12.118 12.118 0 0 0 7.974 7.33l11.817 3.186c-10.776 6.441-24.718 2.9-31.14-7.91a22.844 22.844 0 0 1-2.597-16.881 3.193 3.193 0 0 0-.858-2.964L44.084 52.68a3.17 3.17 0 0 0-3.748-.446 22.754 22.754 0 0 1-10.643 2.644c-9.557.009-18.094-5.993-21.347-15.008l7.243 4.047a11.187 11.187 0 0 0 5.527 1.434 16.58 16.58 0 0 0 13.82-9.05c4.32-7.743 2.636-16.952-3.718-20.521l-9.244-5.258c11.814-4.233 24.81 1.942 29.03 13.792a22.852 22.852 0 0 1 .736 12.815 3.193 3.193 0 0 0 .858 2.964l71.763 71.951a3.17 3.17 0 0 0 3.717.574 22.789 22.789 0 0 1 10.642-2.645 22.67 22.67 0 0 1 19.569 11.217l-11.5-3.123z"/>
</svg>
